<?xml version="1.0" encoding="UTF-8"?>
<svg id="Réteg_1" data-name="Réteg 1" xmlns="http://www.w3.org/2000/svg" xmlns:xlink="http://www.w3.org/1999/xlink" viewBox="0 0 381.08 371.67">
  <defs>
    <style>
      .cls-1 {
        fill: url(#Névtelen_színátmenet_3);
      }
    </style>
    <linearGradient id="Névtelen_színátmenet_3" data-name="Névtelen színátmenet 3" x1="0" y1="185.84" x2="381.08" y2="185.84" gradientUnits="userSpaceOnUse">
      <stop offset="0" stop-color="#a3308a"/>
      <stop offset=".06" stop-color="#932b8f"/>
      <stop offset=".29" stop-color="#651ba2"/>
      <stop offset=".5" stop-color="#400fb0"/>
      <stop offset=".69" stop-color="#2507ba"/>
      <stop offset=".86" stop-color="#1501c0"/>
      <stop offset="1" stop-color="#1000c3"/>
    </linearGradient>
  </defs>
  <path class="cls-1" d="M29.8,367.09c0,.75-.03,1.38-.1,1.88-.07.51-.16.91-.29,1.22-.13.31-.29.54-.49.68-.19.14-.41.21-.64.21H3.03c-.85,0-1.57-.25-2.16-.76s-.87-1.33-.87-2.47v-43.83c0-1.14.29-1.96.87-2.47s1.3-.76,2.16-.76h25.1c.23,0,.44.07.62.19.18.13.34.36.47.68.13.32.23.74.29,1.24.06.51.1,1.15.1,1.92,0,.73-.03,1.34-.1,1.85-.07.51-.16.91-.29,1.22-.13.31-.29.54-.47.68-.18.14-.39.21-.62.21H10.18v12.28h15.19c.23,0,.45.07.64.21.19.14.36.36.49.66.13.3.23.7.29,1.2.06.51.1,1.12.1,1.85s-.03,1.37-.1,1.87c-.07.49-.16.89-.29,1.18-.13.3-.29.51-.49.64-.19.13-.41.19-.64.19h-15.19v14.18h18.11c.23,0,.45.07.64.21.19.14.36.37.49.68.13.31.23.72.29,1.22.06.51.1,1.13.1,1.88ZM54.79,351.43c0,.75-.1,1.26-.31,1.53-.21.27-.48.41-.82.41h-16.28c-.34,0-.62-.14-.84-.43-.22-.28-.33-.79-.33-1.52s.11-1.23.33-1.52c.22-.28.5-.43.84-.43h16.28c.16,0,.3.03.45.1.14.07.27.17.37.33.1.16.18.36.23.6.05.25.08.55.08.91ZM90.27,368.91c0,.36-.03.67-.08.93-.05.26-.13.49-.23.68-.1.19-.23.34-.39.43-.16.09-.34.14-.54.14h-21.8c-.47,0-.95-.17-1.44-.52-.49-.35-.74-.99-.74-1.92v-47.06c0-.16.04-.3.12-.43.08-.13.21-.23.39-.31.18-.08.43-.14.74-.19.31-.05.69-.08,1.13-.08.47,0,.85.03,1.15.08.3.05.54.12.72.19.18.08.31.18.39.31.08.13.12.27.12.43v45.19h19.23c.21,0,.39.05.54.14.16.09.28.22.39.39.1.17.18.39.23.66.05.27.08.59.08.95ZM125.36,368.99c0,.34-.03.64-.08.89-.05.26-.14.48-.25.66-.12.18-.25.32-.41.41-.16.09-.32.14-.51.14h-23.55c-.47,0-.95-.17-1.44-.52-.49-.35-.74-.99-.74-1.92v-45.39c0-.93.25-1.57.74-1.92.49-.35.97-.52,1.44-.52h23.2c.18,0,.35.05.51.14.16.09.28.23.39.41.1.18.18.41.23.68.05.27.08.59.08.95,0,.34-.03.64-.08.89-.05.26-.13.47-.23.64-.1.17-.23.3-.39.39-.16.09-.32.14-.51.14h-20.63v17.68h17.8c.21,0,.39.05.54.14.16.09.28.22.39.39.1.17.18.39.23.66.05.27.08.59.08.95,0,.34-.03.63-.08.87-.05.25-.13.45-.23.6-.1.16-.23.27-.39.35s-.34.12-.54.12h-17.8v20.05h20.98c.18,0,.35.05.51.14.16.09.29.22.41.39.12.17.2.39.25.66.05.27.08.59.08.95ZM172.22,369.49c.16.39.23.71.21.95-.01.25-.1.43-.27.56-.17.13-.43.21-.78.25s-.8.06-1.34.06-.98-.02-1.3-.06c-.32-.04-.58-.1-.76-.17-.18-.08-.32-.18-.41-.31-.09-.13-.17-.28-.25-.47l-4.82-13.41h-22.07l-4.62,13.33c-.05.18-.13.34-.23.47-.1.13-.25.24-.43.33-.18.09-.43.16-.76.21-.32.05-.73.08-1.22.08-.54,0-1-.03-1.36-.08-.36-.05-.63-.14-.8-.27-.17-.13-.26-.31-.27-.54-.01-.23.06-.54.21-.93l17.6-47.83c.08-.21.19-.38.35-.52.16-.14.36-.25.6-.33.25-.08.54-.14.89-.17s.74-.06,1.19-.06c.47,0,.87.02,1.22.06s.65.1.89.17c.25.08.44.19.58.33.14.14.25.32.33.52l17.6,47.83ZM151.35,325.9h-.04l-9.48,27.04h19.23l-9.71-27.04ZM212.83,370.23c0,.18-.03.34-.1.47-.07.13-.19.24-.37.33-.18.09-.43.16-.76.21-.32.05-.73.08-1.22.08-.44,0-.81-.02-1.11-.06-.3-.04-.55-.12-.76-.23-.21-.12-.38-.27-.51-.47-.13-.19-.25-.45-.35-.76l-4.7-12.2c-.54-1.37-1.13-2.67-1.75-3.89-.62-1.22-1.37-2.27-2.25-3.17-.88-.89-1.94-1.6-3.19-2.12-1.24-.52-2.73-.78-4.47-.78h-5.21v22.65c0,.16-.04.3-.12.43-.08.13-.21.23-.39.31-.18.08-.42.14-.72.19-.3.05-.68.08-1.15.08-.44,0-.82-.03-1.13-.08-.31-.05-.56-.12-.74-.19-.18-.08-.31-.18-.39-.31-.08-.13-.12-.27-.12-.43v-47.06c0-.93.25-1.57.74-1.92.49-.35.97-.52,1.44-.52h9.44c1.24,0,2.27.03,3.09.1.82.07,1.56.15,2.23.25,1.92.34,3.59.88,5.01,1.63,1.42.75,2.6,1.68,3.54,2.78.93,1.1,1.63,2.35,2.08,3.73.45,1.39.68,2.88.68,4.49s-.23,3.14-.7,4.45c-.47,1.31-1.13,2.46-1.98,3.46-.85,1-1.88,1.86-3.07,2.58-1.19.73-2.5,1.33-3.92,1.83.85.39,1.63.87,2.31,1.44.69.57,1.32,1.26,1.9,2.06.58.8,1.13,1.73,1.65,2.78.52,1.05,1.04,2.22,1.55,3.52l4.7,11.74c.34.91.55,1.53.64,1.87.09.34.14.58.14.74ZM204.47,334.29c0-2.15-.48-3.97-1.44-5.46-.96-1.49-2.56-2.56-4.82-3.21-.75-.21-1.57-.36-2.45-.45-.88-.09-2.03-.14-3.46-.14h-6.22v18.46h7.23c1.94,0,3.61-.24,5.01-.72,1.4-.48,2.56-1.13,3.48-1.96.92-.83,1.59-1.8,2.02-2.91.43-1.11.64-2.32.64-3.61ZM259.81,368.79c0,.47-.07.85-.21,1.17-.14.31-.32.56-.54.76-.22.19-.47.33-.74.41s-.52.12-.76.12h-.97c-.52,0-.99-.07-1.42-.19s-.84-.36-1.24-.68c-.4-.32-.8-.76-1.2-1.3-.4-.54-.85-1.24-1.34-2.1l-17.72-31.4c-.88-1.53-1.77-3.1-2.66-4.72-.89-1.62-1.74-3.19-2.55-4.72h-.04c.03,1.89.04,3.83.04,5.81v38.37c0,.16-.04.3-.12.43-.08.13-.21.23-.39.31-.18.08-.42.14-.72.19-.3.05-.68.08-1.15.08-.44,0-.82-.03-1.13-.08-.31-.05-.56-.12-.74-.19-.18-.08-.31-.18-.39-.31-.08-.13-.12-.27-.12-.43v-47.06c0-.93.25-1.57.74-1.92.49-.35.97-.52,1.44-.52h1.94c.62,0,1.14.05,1.55.16.41.1.79.28,1.13.52.34.25.67.6.99,1.05.32.45.68,1.03,1.07,1.73l13.56,24.05c.85,1.5,1.66,2.95,2.43,4.33.76,1.39,1.51,2.75,2.23,4.08.72,1.33,1.44,2.65,2.16,3.94.71,1.3,1.42,2.6,2.12,3.92h.04c-.03-2.18-.04-4.44-.04-6.8v-36.06c0-.16.04-.3.12-.43.08-.13.21-.24.39-.33.18-.09.42-.16.72-.19.3-.04.68-.06,1.15-.06.41,0,.78.02,1.09.06s.56.1.74.19c.18.09.32.2.41.33.09.13.14.27.14.43v47.06ZM279.24,370.31c0,.16-.04.3-.12.43-.08.13-.21.23-.39.31-.18.08-.42.14-.72.19-.3.05-.68.08-1.15.08-.44,0-.82-.03-1.13-.08-.31-.05-.56-.12-.74-.19-.18-.08-.31-.18-.39-.31-.08-.13-.12-.27-.12-.43v-48.73c0-.16.04-.3.14-.43.09-.13.23-.23.43-.31s.44-.14.74-.19c.3-.05.65-.08,1.07-.08.47,0,.85.03,1.15.08.3.05.54.12.72.19.18.08.31.18.39.31.08.13.12.27.12.43v48.73ZM330.02,368.79c0,.47-.07.85-.21,1.17-.14.31-.32.56-.54.76-.22.19-.47.33-.74.41s-.52.12-.76.12h-.97c-.52,0-.99-.07-1.42-.19s-.84-.36-1.24-.68c-.4-.32-.8-.76-1.2-1.3-.4-.54-.85-1.24-1.34-2.1l-17.72-31.4c-.88-1.53-1.77-3.1-2.66-4.72-.89-1.62-1.74-3.19-2.55-4.72h-.04c.03,1.89.04,3.83.04,5.81v38.37c0,.16-.04.3-.12.43-.08.13-.21.23-.39.31-.18.08-.42.14-.72.19-.3.05-.68.08-1.15.08-.44,0-.82-.03-1.13-.08-.31-.05-.56-.12-.74-.19-.18-.08-.31-.18-.39-.31-.08-.13-.12-.27-.12-.43v-47.06c0-.93.25-1.57.74-1.92.49-.35.97-.52,1.44-.52h1.94c.62,0,1.14.05,1.55.16.41.1.79.28,1.13.52.34.25.67.6.99,1.05.32.45.68,1.03,1.07,1.73l13.56,24.05c.85,1.5,1.66,2.95,2.43,4.33.76,1.39,1.51,2.75,2.23,4.08.72,1.33,1.44,2.65,2.16,3.94.71,1.3,1.42,2.6,2.12,3.92h.04c-.03-2.18-.04-4.44-.04-6.8v-36.06c0-.16.04-.3.12-.43.08-.13.21-.24.39-.33.18-.09.42-.16.72-.19.3-.04.68-.06,1.15-.06.41,0,.78.02,1.09.06s.56.1.74.19c.18.09.32.2.41.33.09.13.14.27.14.43v47.06ZM381.08,327.14c0,.34-.03.65-.08.93-.05.29-.12.52-.21.72-.09.19-.21.34-.35.45-.14.1-.29.16-.45.16-.31,0-.82-.26-1.53-.78-.71-.52-1.67-1.08-2.86-1.69-1.19-.61-2.64-1.17-4.33-1.69-1.7-.52-3.71-.78-6.04-.78-2.98,0-5.63.55-7.97,1.65-2.33,1.1-4.3,2.61-5.91,4.53-1.61,1.92-2.83,4.19-3.67,6.82-.84,2.63-1.26,5.46-1.26,8.49,0,3.39.48,6.42,1.44,9.07.96,2.66,2.29,4.9,3.98,6.72,1.7,1.83,3.72,3.22,6.06,4.18,2.34.96,4.9,1.44,7.67,1.44,1.79,0,3.6-.22,5.44-.66,1.84-.44,3.56-1.11,5.17-2.02v-16.28h-12.82c-.41,0-.73-.18-.93-.54-.21-.36-.31-.88-.31-1.55,0-.36.03-.68.08-.95.05-.27.13-.49.23-.66.1-.17.23-.3.39-.39.16-.09.34-.14.54-.14h15.39c.23,0,.48.04.74.12.26.08.5.21.72.39.22.18.39.43.52.76.13.32.19.72.19,1.19v18.69c0,.62-.1,1.15-.29,1.59-.19.44-.64.86-1.34,1.26-.7.4-1.63.84-2.8,1.32-1.17.48-2.37.88-3.61,1.2-1.24.32-2.49.57-3.75.74-1.26.17-2.49.25-3.71.25-3.81,0-7.21-.61-10.2-1.85-2.99-1.23-5.52-2.97-7.58-5.21-2.06-2.24-3.63-4.91-4.72-8-1.09-3.1-1.63-6.51-1.63-10.24s.59-7.48,1.77-10.71c1.18-3.23,2.84-5.98,4.97-8.26,2.14-2.28,4.7-4.05,7.67-5.3,2.98-1.26,6.27-1.88,9.87-1.88,1.81,0,3.53.17,5.15.51,1.62.34,3.08.75,4.37,1.22,1.29.48,2.4,1,3.3,1.55.91.56,1.52,1,1.85,1.32.32.32.54.64.66.95s.17.76.17,1.36ZM257.51,103.54c-.07-.21-.11-.41-.17-.62l-39.26,39.26c-.58.58-.62,2-.09,3.68.72,2.31,2.4,4.91,4.62,7.12,4.61,4.61,9.55,5.77,10.81,4.53l39.04-39.04c-2.97-.94-6.16-2.92-9.09-5.84-2.79-2.79-4.87-6.02-5.86-9.09ZM212.96,147.43s-.02-.07-.03-.1l-43.95,43.95c-1.25,1.25-.08,6.2,4.53,10.81,2.22,2.22,4.81,3.9,7.12,4.62,1.69.53,3.1.49,3.68-.1l43.95-43.95c-3.07-.92-6.37-2.94-9.38-5.95-2.84-2.84-4.95-6.14-5.93-9.28ZM172.59,158.63c0-2.42-1.97-4.39-4.39-4.39s-4.39,1.97-4.39,4.39,1.97,4.39,4.39,4.39,4.39-1.97,4.39-4.39ZM193.74,0C120.46,0,61.05,59.41,61.05,132.69c0,24.14,6.45,46.78,17.72,66.28l-24.12,72.19,71.91-24.02c19.71,11.59,42.66,18.25,67.18,18.25,73.28,0,132.69-59.41,132.69-132.69S267.03,0,193.74,0ZM157.67,185.85h-17.56c-1.45,0-2.63-1.18-2.63-2.63V63.81c0-1.45,1.18-2.63,2.63-2.63h94.82c1.45,0,2.63,1.18,2.63,2.63v42.14c0,1.45-1.18,2.63-2.63,2.63s-2.63-1.18-2.63-2.63v-39.51h-89.55v114.14h14.93c1.45,0,2.63,1.18,2.63,2.63s-1.18,2.63-2.63,2.63ZM157.67,119.12c-1.45,0-2.63-1.18-2.63-2.63s1.18-2.63,2.63-2.63h56.19c1.45,0,2.63,1.18,2.63,2.63s-1.18,2.63-2.63,2.63h-56.19ZM198.93,130.54c0,1.45-1.18,2.63-2.63,2.63h-38.63c-1.45,0-2.63-1.18-2.63-2.63s1.18-2.63,2.63-2.63h38.63c1.45,0,2.63,1.18,2.63,2.63ZM213.86,105.07h-56.19c-1.45,0-2.63-1.18-2.63-2.63s1.18-2.63,2.63-2.63h56.19c1.45,0,2.63,1.18,2.63,2.63s-1.18,2.63-2.63,2.63ZM213.86,91.03h-56.19c-1.45,0-2.63-1.18-2.63-2.63s1.18-2.63,2.63-2.63h56.19c1.45,0,2.63,1.18,2.63,2.63s-1.18,2.63-2.63,2.63ZM158.55,158.63c0-5.32,4.33-9.66,9.66-9.66s9.66,4.33,9.66,9.66-4.33,9.66-9.66,9.66-9.66-4.33-9.66-9.66ZM281.28,117.18c-.2.2-.41.37-.63.54l-42.32,42.32c2.24.59,4.29,1.76,5.96,3.46,2.5,2.53,3.85,5.89,3.81,9.46v38.34c0,1.45-1.18,2.63-2.63,2.63s-2.63-1.18-2.63-2.63v-38.38c.03-2.18-.79-4.2-2.29-5.72-.85-.86-1.87-1.51-2.98-1.9v24.93c0,1.45-1.18,2.63-2.63,2.63s-2.63-1.18-2.63-2.63v-24.16l-44.25,44.25c-1.33,1.33-3.14,2.01-5.25,2.01-1.16,0-2.41-.2-3.72-.61-3.14-.98-6.44-3.08-9.28-5.92-6.49-6.49-8.44-14.34-4.53-18.26l49.1-49.1s0,0,0,0c0,0,0,0,0,0l44.09-44.09c.53-.53,1.23-.78,1.92-.77,1.93-1.01,4.43-1.09,7.26-.18,3.07.99,6.3,3.07,9.09,5.86,6.4,6.4,8.36,14.1,4.55,17.91ZM266.02,98.43c-.79-.25-1.52-.38-2.12-.38s-1.09.13-1.36.4c-.52.52-.53,1.89-.02,3.48.72,2.25,2.39,4.8,4.57,6.98,4.21,4.21,8.64,5.55,10.17,4.76l.25-.25c.06-.06.12-.1.19-.15.91-1.43-.4-5.96-4.7-10.26-2.18-2.18-4.72-3.85-6.98-4.57Z"/>
</svg>